<svg width="38" height="35" viewBox="0 0 38 35" fill="none" xmlns="http://www.w3.org/2000/svg">
<path d="M0.669736 16.8217L9.42543 20.0898L12.814 30.9961C12.8639 31.1573 12.9527 31.3038 13.0725 31.4226C13.1923 31.5414 13.3395 31.629 13.5011 31.6775C13.6627 31.7261 13.8338 31.7342 13.9992 31.7011C14.1647 31.6681 14.3195 31.5948 14.45 31.4878L19.3311 27.5099C19.5798 27.307 19.8886 27.1921 20.2095 27.1831C20.5303 27.1741 20.8451 27.2715 21.1048 27.4601L29.9064 33.8509C30.0457 33.9523 30.2083 34.0173 30.3792 34.0397C30.5501 34.0622 30.7239 34.0414 30.8847 33.9794C31.0455 33.9173 31.1882 33.816 31.2998 33.6846C31.4113 33.5531 31.4881 33.3959 31.5232 33.2271L37.9713 2.20909C38.0086 2.0276 37.9964 1.83942 37.936 1.66426C37.8756 1.4891 37.7692 1.33341 37.628 1.21349C37.4867 1.09357 37.3159 1.01384 37.1332 0.982645C36.9506 0.95145 36.7629 0.969941 36.5899 1.03618L0.656342 14.8987C0.463777 14.976 0.298951 15.1095 0.183326 15.2818C0.0677019 15.4541 0.00663645 15.6573 0.00808171 15.8648C0.00952698 16.0723 0.073416 16.2745 0.191429 16.4452C0.309443 16.6159 0.476113 16.7471 0.669736 16.8217V16.8217ZM12.2687 18.3524L29.3802 7.81342C29.4433 7.7748 29.5184 7.76096 29.5911 7.77459C29.6638 7.78822 29.7288 7.82834 29.7736 7.88718C29.8184 7.94603 29.8398 8.0194 29.8335 8.09309C29.8273 8.16678 29.794 8.23553 29.7399 8.28603L15.6172 21.4138C15.1215 21.875 14.801 22.4937 14.7102 23.1646L14.23 26.7292C14.2174 26.8308 14.1701 26.9249 14.096 26.9954C14.0218 27.0659 13.9255 27.1086 13.8235 27.116C13.7214 27.1235 13.6199 27.0953 13.5363 27.0363C13.4528 26.9772 13.3922 26.891 13.3651 26.7924L11.5149 20.2868C11.4125 19.926 11.4307 19.5416 11.5668 19.1921C11.7029 18.8426 11.9493 18.5471 12.2687 18.3505V18.3524Z" fill="white"/>
</svg>
