<svg width="448" height="448" viewBox="0 0 448 448" fill="none" xmlns="http://www.w3.org/2000/svg">
<path d="M384 172.4C384 83.6 312.4 12 224 12C135.6 12 64 83.6 64 172C64 172 64 172 64 172.4C28.4 174.4 0 204 0 240V248C0 285.6 30.4 316 68 316H71.6L100 361.2C120 393.2 154 412 191.6 412H197.2C200.8 425.6 213.2 436 228 436C245.6 436 260 421.6 260 404C260 386.4 245.6 372 228 372C213.2 372 200.8 382.4 197.2 396H191.6C159.6 396 130.4 379.6 113.6 352.4L90.4 316H96C104.8 316 112 308.8 112 300V188C112 179.2 104.8 172 96 172H80C80 92.4 144.4 28 224 28C303.6 28 368 92.4 368 172H352C343.2 172 336 179.2 336 188V300C336 308.8 343.2 316 352 316H380C417.6 316 448 285.6 448 248V240C448 204 419.6 174.4 384 172.4ZM228 388C236.8 388 244 395.2 244 404C244 412.8 236.8 420 228 420C219.2 420 212 412.8 212 404C212 395.2 219.2 388 228 388ZM96 188V300H68C39.2 300 16 276.8 16 248V240C16 211.2 39.2 188 68 188H96ZM432 248C432 276.8 408.8 300 380 300H352V188H380C408.8 188 432 211.2 432 240V248Z" fill="white"/>
<path d="M290.4 72.3994C289.6 71.9994 288.4 71.1994 287.2 70.3994C286 69.5994 284.8 68.7994 284 68.3994C280.4 65.9994 275.2 67.1994 273.2 71.1994C271.2 75.1994 272 79.5994 276 81.9994C276.8 82.3994 278 83.1994 279.2 83.9994C280.4 84.7994 281.6 85.5994 282.8 85.9994C284 86.7994 285.6 87.1994 286.8 87.1994C289.6 87.1994 292 85.9994 293.6 83.1994C295.6 79.5994 294.4 74.7994 290.4 72.3994Z" fill="white"/>
<path d="M224 52C190 52 158 66.8 136 92.4C133.2 95.6 133.6 100.8 136.8 103.6C138.4 104.8 140 105.6 142 105.6C144.4 105.6 146.4 104.8 148 102.8C167.2 80.8 194.8 68 224 68C231.2 68 238.4 68.8 245.6 70.4C250 71.2 254 68.4 255.2 64.4C256.4 60.4 253.2 56 249.2 54.8C240.8 52.8 232.4 52 224 52Z" fill="white"/>
</svg>
