<svg width="20" height="24" viewBox="0 0 20 24" fill="none" xmlns="http://www.w3.org/2000/svg">
<path d="M15.15 10.9281C15.0975 10.7971 15.0128 10.6861 14.906 10.6083C14.7992 10.5306 14.6749 10.4893 14.548 10.4896H11.903V0.747879C11.9027 0.549425 11.833 0.359202 11.709 0.21898C11.5851 0.0787578 11.4171 -2.27098e-07 11.242 0H8.59699C8.42176 -9.06151e-07 8.25368 0.0787209 8.12959 0.218911C8.0055 0.3591 7.93552 0.549321 7.93499 0.747879V10.4896H5.28998C5.16326 10.4902 5.03937 10.532 4.933 10.6101C4.82664 10.6881 4.74229 10.7991 4.68995 10.9299C4.63762 11.0607 4.61951 11.2057 4.63777 11.3478C4.65603 11.4899 4.7099 11.6231 4.79298 11.7315L9.42199 17.7259C9.48385 17.8064 9.56022 17.8709 9.64595 17.9151C9.73169 17.9594 9.82479 17.9822 9.91899 17.9822C10.0132 17.9822 10.1063 17.9594 10.192 17.9151C10.2778 17.8709 10.3541 17.8064 10.416 17.7259L15.046 11.7315C15.1298 11.6232 15.1842 11.4897 15.2026 11.3472C15.2211 11.2047 15.2028 11.0591 15.15 10.9281Z" fill="#347DFE"/>
<path d="M17.193 16.4828V20.9791H2.645V16.4839H0V22.4783C0 23.3066 0.593 23.9763 1.323 23.9763H18.515C19.247 23.9763 19.838 23.3078 19.838 22.4783V16.4839L17.193 16.4828Z" fill="#347DFE"/>
</svg>
