<svg width="62" height="62" viewBox="0 0 62 62" fill="none" xmlns="http://www.w3.org/2000/svg">
<path d="M43.6052 31.0009C43.6052 37.9622 37.9622 43.6052 31.0009 43.6052C24.0395 43.6052 18.3965 37.9622 18.3965 31.0009C18.3965 24.0395 24.0395 18.3965 31.0009 18.3965C37.9622 18.3965 43.6052 24.0395 43.6052 31.0009Z" fill="#F8F7FC"/>
<path d="M60.4777 8.69867C59.8718 7.0568 58.9052 5.57068 57.6492 4.35084C56.4293 3.09483 54.9442 2.12819 53.3013 1.52229C51.9689 1.00481 49.9674 0.388863 46.2807 0.221059C42.2926 0.0391878 41.0969 0 31.0005 0C20.9031 0 19.7074 0.038183 15.7203 0.220054C12.0336 0.388863 10.0311 1.00481 8.69967 1.52229C7.0568 2.12819 5.57068 3.09483 4.35185 4.35084C3.09583 5.57068 2.1292 7.0558 1.52229 8.69867C1.00481 10.0311 0.388863 12.0336 0.221059 15.7203C0.0391878 19.7074 0 20.9031 0 31.0005C0 41.0969 0.0391878 42.2926 0.221059 46.2807C0.388863 49.9674 1.00481 51.9689 1.52229 53.3013C2.1292 54.9442 3.09483 56.4293 4.35084 57.6492C5.57068 58.9052 7.0558 59.8718 8.69867 60.4777C10.0311 60.9962 12.0336 61.6121 15.7203 61.7799C19.7074 61.9618 20.9021 62 30.9995 62C41.0979 62 42.2936 61.9618 46.2797 61.7799C49.9664 61.6121 51.9689 60.9962 53.3013 60.4777C56.5991 59.2056 59.2056 56.5991 60.4777 53.3013C60.9952 51.9689 61.6111 49.9674 61.7799 46.2807C61.9618 42.2926 62 41.0969 62 31.0005C62 20.9031 61.9618 19.7074 61.7799 15.7203C61.6121 12.0336 60.9962 10.0311 60.4777 8.69867ZM31.0005 50.4165C20.2761 50.4165 11.5825 41.7239 11.5825 30.9995C11.5825 20.2751 20.2761 11.5825 31.0005 11.5825C41.7239 11.5825 50.4175 20.2751 50.4175 30.9995C50.4175 41.7239 41.7239 50.4165 31.0005 50.4165ZM51.1852 15.3525C48.6792 15.3525 46.6475 13.3208 46.6475 10.8148C46.6475 8.3088 48.6792 6.27707 51.1852 6.27707C53.6912 6.27707 55.7229 8.3088 55.7229 10.8148C55.7219 13.3208 53.6912 15.3525 51.1852 15.3525Z" fill="#F8F7FC"/>
</svg>
