<svg width="29" height="29" viewBox="0 0 29 29" fill="none" xmlns="http://www.w3.org/2000/svg">
<circle cx="14.5" cy="14.5" r="14" fill="#26437D" stroke="#3276EB"/>
<path d="M21.9963 20V19.9995H22V14.865C22 12.3531 21.4207 10.4182 18.2744 10.4182C16.7619 10.4182 15.7469 11.1929 15.3325 11.9273H15.2888V10.6527H12.3057V19.9995H15.4119V15.3713C15.4119 14.1527 15.6594 12.9744 17.2763 12.9744C18.8694 12.9744 18.8932 14.365 18.8932 15.4495V20H21.9963Z" fill="white"/>
<path d="M7.2475 10.6533H10.3575V20.0001H7.2475V10.6533Z" fill="white"/>
<path d="M8.80125 6C7.80688 6 7 6.75308 7 7.68117C7 8.60925 7.80688 9.37808 8.80125 9.37808C9.79562 9.37808 10.6025 8.60925 10.6025 7.68117C10.6019 6.75308 9.795 6 8.80125 6V6Z" fill="white"/>
</svg>
