<svg width="29" height="29" viewBox="0 0 29 29" fill="none" xmlns="http://www.w3.org/2000/svg">
<circle cx="14.5" cy="14.5" r="14" fill="#26437D" stroke="#3276EB"/>
<path d="M22 9.00616C21.3906 9.42025 20.7159 9.73696 20.0018 9.9441C19.6186 9.51958 19.1092 9.2187 18.5427 9.08213C17.9761 8.94557 17.3797 8.97992 16.8341 9.18054C16.2884 9.38116 15.8199 9.73837 15.4919 10.2038C15.1639 10.6693 14.9922 11.2206 15 11.7832V12.3962C13.8817 12.4242 12.7735 12.1852 11.7743 11.7007C10.775 11.2162 9.91566 10.5011 9.27273 9.61919C9.27273 9.61919 6.72727 15.1365 12.4545 17.5886C11.144 18.4456 9.58274 18.8753 8 18.8146C13.7273 21.8798 20.7273 18.8146 20.7273 11.7648C20.7267 11.594 20.7096 11.4237 20.6764 11.256C21.3258 10.639 21.7842 9.85994 22 9.00616Z" fill="white"/>
</svg>
