<svg width="29" height="29" viewBox="0 0 29 29" fill="none" xmlns="http://www.w3.org/2000/svg">
<circle cx="14.5" cy="14.5" r="14" fill="#26437D" stroke="#3276EB"/>
<path d="M8 21.3032L8.93067 17.9978C8.3322 16.981 8.01709 15.8242 8.01709 14.6359C8.01709 10.9768 10.9939 8 14.653 8C18.312 8 21.2888 10.9768 21.2888 14.6359C21.2888 18.2949 18.312 21.2717 14.653 21.2717C13.5128 21.2717 12.3964 20.9799 11.4088 20.4257L8 21.3032ZM11.5831 19.2185L11.7862 19.3425C12.6473 19.8682 13.6386 20.1461 14.653 20.1461C17.6913 20.1461 20.1631 17.6742 20.1631 14.6359C20.1631 11.5975 17.6913 9.12566 14.653 9.12566C11.6146 9.12566 9.14276 11.5975 9.14276 14.6359C9.14276 15.6945 9.44364 16.7226 10.0128 17.6089L10.1496 17.8219L9.61366 19.7255L11.5831 19.2185Z" fill="white"/>
<path d="M12.7888 11.5472L12.3583 11.5237C12.223 11.5163 12.0903 11.5615 11.9881 11.6503C11.7794 11.8316 11.4456 12.1821 11.3431 12.6388C11.1902 13.3197 11.4265 14.1535 12.0379 14.9874C12.6494 15.8212 13.789 17.1553 15.804 17.7251C16.4534 17.9087 16.9642 17.7849 17.3583 17.5328C17.6704 17.3332 17.8856 17.0127 17.9631 16.6504L18.0319 16.3293C18.0537 16.2272 18.0019 16.1237 17.9071 16.08L16.4519 15.4092C16.3574 15.3657 16.2454 15.3932 16.1818 15.4755L15.6105 16.2161C15.5674 16.2721 15.4935 16.2943 15.4268 16.2708C15.0356 16.1333 13.7251 15.5845 13.006 14.1993C12.9748 14.1392 12.9825 14.0663 13.0268 14.0151L13.5728 13.3835C13.6285 13.319 13.6426 13.2283 13.6091 13.1499L12.9818 11.6823C12.9484 11.6042 12.8736 11.5518 12.7888 11.5472Z" fill="white"/>
</svg>
