<svg width="84" height="84" viewBox="0 0 84 84" fill="none" xmlns="http://www.w3.org/2000/svg">
<path d="M84 42C84 65.196 65.196 84 42 84C18.804 84 0 65.196 0 42C0 18.804 18.804 0 42 0C65.196 0 84 18.804 84 42Z" fill="#7C8699"/>
<path d="M42.004 17C33.3858 17 26.3408 23.7385 26.3408 31.9818C26.3408 40.2252 33.3858 46.9637 42.004 46.9637C50.6222 46.9637 57.6671 40.2252 57.6671 31.9818C57.6671 23.7385 50.6222 17 42.004 17Z" fill="white"/>
<path d="M68.8846 58.9358C68.4742 57.9544 67.9271 57.0385 67.3115 56.188C64.1651 51.7392 59.309 48.7952 53.8371 48.0755C53.1532 48.0102 52.4008 48.1409 51.8536 48.5335C48.9809 50.5616 45.561 51.6083 42.0042 51.6083C38.4475 51.6083 35.0276 50.5616 32.1549 48.5335C31.6076 48.1409 30.8553 47.9447 30.1713 48.0755C24.6995 48.7952 19.7749 51.7392 16.697 56.188C16.0814 57.0385 15.5342 58.0199 15.1239 58.9358C14.9187 59.3283 14.9871 59.7863 15.1922 60.1789C15.7395 61.0947 16.4234 62.0108 17.039 62.7958C17.9965 64.0389 19.0225 65.151 20.1853 66.1977C21.1428 67.1136 22.2372 67.9641 23.3317 68.8146C28.735 72.6746 35.2329 74.7026 41.9359 74.7026C48.6389 74.7026 55.1368 72.6745 60.5401 68.8146C61.6345 68.0296 62.7288 67.1136 63.6865 66.1977C64.7808 65.151 65.8752 64.0387 66.8328 62.7958C67.5168 61.9453 68.1325 61.0947 68.6796 60.1789C69.0214 59.7863 69.0897 59.3282 68.8846 58.9358Z" fill="white"/>
</svg>
