<svg width="29" height="29" viewBox="0 0 29 29" fill="none" xmlns="http://www.w3.org/2000/svg">
<circle cx="14.5" cy="14.5" r="14" fill="#26437D" stroke="#3276EB"/>
<path d="M17.6015 14.8262C17.6015 16.359 16.3589 17.6016 14.8261 17.6016C13.2932 17.6016 12.0507 16.359 12.0507 14.8262C12.0507 13.2933 13.2932 12.0508 14.8261 12.0508C16.3589 12.0508 17.6015 13.2933 17.6015 14.8262Z" fill="white"/>
<path d="M21.3167 9.91538C21.1833 9.55386 20.9705 9.22662 20.6939 8.95802C20.4253 8.68146 20.0983 8.46861 19.7366 8.3352C19.4432 8.22125 19.0024 8.08562 18.1907 8.04868C17.3125 8.00863 17.0492 8 14.8261 8C12.6027 8 12.3394 8.00841 11.4615 8.04845C10.6497 8.08562 10.2088 8.22125 9.9156 8.3352C9.55386 8.46861 9.22662 8.68146 8.95824 8.95802C8.68168 9.22662 8.46883 9.55363 8.3352 9.91538C8.22125 10.2088 8.08562 10.6497 8.04868 11.4615C8.00863 12.3394 8 12.6027 8 14.8261C8 17.0492 8.00863 17.3125 8.04868 18.1907C8.08562 19.0024 8.22125 19.4432 8.3352 19.7366C8.46883 20.0983 8.68146 20.4253 8.95802 20.6939C9.22662 20.9705 9.55363 21.1833 9.91538 21.3167C10.2088 21.4309 10.6497 21.5665 11.4615 21.6035C12.3394 21.6435 12.6025 21.6519 14.8259 21.6519C17.0494 21.6519 17.3127 21.6435 18.1904 21.6035C19.0022 21.5665 19.4432 21.4309 19.7366 21.3167C20.4627 21.0366 21.0366 20.4627 21.3167 19.7366C21.4307 19.4432 21.5663 19.0024 21.6035 18.1907C21.6435 17.3125 21.6519 17.0492 21.6519 14.8261C21.6519 12.6027 21.6435 12.3394 21.6035 11.4615C21.5665 10.6497 21.4309 10.2088 21.3167 9.91538ZM14.8261 19.1013C12.4647 19.1013 10.5504 17.1873 10.5504 14.8259C10.5504 12.4644 12.4647 10.5504 14.8261 10.5504C17.1873 10.5504 19.1016 12.4644 19.1016 14.8259C19.1016 17.1873 17.1873 19.1013 14.8261 19.1013ZM19.2706 11.3805C18.7188 11.3805 18.2714 10.9331 18.2714 10.3813C18.2714 9.82954 18.7188 9.38216 19.2706 9.38216C19.8224 9.38216 20.2698 9.82954 20.2698 10.3813C20.2696 10.9331 19.8224 11.3805 19.2706 11.3805Z" fill="white"/>
</svg>
