<svg xmlns="http://www.w3.org/2000/svg" width="57" height="30.63" viewBox="0 0 800 430">
   <g stroke="none" stroke-width="1" fill="none" fill-rule="evenodd">
    <g fill-rule="nonzero">
      <path d="M648.66,361.25 C734.212079,293.454402 788.287423,193.596593 798.31,84.9 C798.31,84.6238576 798.533858,84.4 798.81,84.4 C799.086142,84.4 799.31,84.6238576 799.31,84.9 C799.62,91.5 800.01,101 800.01,106.98 C800.01,239.28 735.78,356.57 636.82,429.39 C636.395589,429.715666 635.858399,429.85773 635.328481,429.784443 C634.798564,429.711157 634.320094,429.428629 634,429 L370.55,66.47 C370.373269,66.2573704 370.40237,65.9417311 370.615,65.765 C370.82763,65.5882689 371.143269,65.6173704 371.32,65.83 L646,361 C646.692821,361.750191 647.839533,361.857965 648.66,361.25 Z" fill="#FFFFFF"></path>
      <path d="M347.17,131.64 L295.55,1 C295.453013,0.764878116 295.547987,0.494413242 295.770681,0.371547455 C295.993376,0.248681667 296.272821,0.312570658 296.42,0.52 L386,123.86 C386.508736,124.560734 386.508736,125.509266 386,126.21 L166,429 C165.686083,429.431915 165.212493,429.720375 164.684694,429.801141 C164.156896,429.881907 163.618715,429.748274 163.19,429.43 C64.22,356.57 0,239.29 0,107 C0,101 0.39,91.52 0.7,84.92 C0.7,84.6438576 0.923857625,84.42 1.2,84.42 C1.47614237,84.42 1.7,84.6438576 1.7,84.92 C11.7239394,193.638523 65.8237016,293.512227 151.41,361.3 C152.257407,361.970137 153.483843,361.846165 154.18,361.02 L346.83,133.67 C347.309549,133.108058 347.440278,132.327529 347.17,131.64 Z" fill="#007AFF"></path>
    </g>
  </g>
</svg>
