<svg width="57" height="57" viewBox="0 0 57 57" fill="none" xmlns="http://www.w3.org/2000/svg">
<path d="M54.1827 26.1743C54.5223 26.3862 54.8023 26.6812 54.9963 27.0313C55.1904 27.3814 55.292 27.7752 55.2918 28.1755C55.2915 28.5758 55.1893 28.9694 54.9947 29.3193C54.8002 29.6691 54.5198 29.9637 54.1799 30.1751L23.6576 49.173C23.301 49.395 22.8915 49.5177 22.4715 49.5283C22.0515 49.5389 21.6364 49.4371 21.269 49.2334C20.9016 49.0297 20.5953 48.7315 20.3818 48.3696C20.1684 48.0078 20.0555 47.5955 20.0549 47.1754L19.9955 9.08353C19.9948 8.66252 20.1068 8.24899 20.32 7.88594C20.5332 7.52289 20.8397 7.22357 21.2078 7.0191C21.5758 6.81462 21.9919 6.71246 22.4128 6.72322C22.8336 6.73398 23.2439 6.85728 23.601 7.0803L54.1827 26.1743Z" fill="white"/>
</svg>
