<svg width="40" height="40" viewBox="0 0 40 40" fill="none" xmlns="http://www.w3.org/2000/svg">
<g clip-path="url(#clip0)">
<path d="M37.7996 2.20032C36.3332 0.733531 34.5664 0 32.5006 0H7.50044C5.43466 0 3.66787 0.733531 2.20081 2.20032C0.73402 3.66738 0.000488281 5.43408 0.000488281 7.49995V32.4998C0.000488281 34.5655 0.73402 36.3324 2.20081 37.7995C3.66787 39.2665 5.43466 40.0001 7.50044 40.0001H32.5004C34.5661 40.0001 36.3329 39.2665 37.7993 37.7995C39.2664 36.3324 39.9999 34.5656 39.9999 32.4998V7.49995C39.9998 5.43408 39.2663 3.66711 37.7996 2.20032ZM30.5994 15.3907C30.6168 15.547 30.6257 15.781 30.6257 16.094C30.6257 17.5524 30.4128 19.0151 29.9876 20.4817C29.5625 21.949 28.9113 23.3552 28.0342 24.7006C27.158 26.0459 26.112 27.2355 24.8969 28.2684C23.6815 29.3009 22.2233 30.1259 20.5216 30.7418C18.8207 31.3586 16.9974 31.667 15.0531 31.667C12.0325 31.667 9.2374 30.8504 6.66785 29.2192C7.08451 29.271 7.51878 29.2972 7.96991 29.2972C10.4874 29.2972 12.753 28.516 14.767 26.953C13.5866 26.9361 12.5317 26.5718 11.603 25.8593C10.674 25.1476 10.0275 24.2449 9.66282 23.1511C10.114 23.2204 10.4525 23.2548 10.6782 23.2548C11.0601 23.2548 11.5029 23.1855 12.0063 23.0469C10.7389 22.8035 9.67139 22.1748 8.80332 21.1591C7.93507 20.1434 7.50108 18.9846 7.50108 17.6826V17.6306C8.42096 18.0643 9.28903 18.2899 10.1051 18.3075C8.52522 17.2483 7.73532 15.7294 7.73532 13.7503C7.73532 12.778 7.98688 11.8579 8.49037 10.9898C9.86175 12.674 11.5288 14.0193 13.4903 15.0262C15.452 16.033 17.5529 16.5975 19.7923 16.7189C19.7057 16.3891 19.6622 15.9722 19.6622 15.4689C19.6622 13.9583 20.196 12.6694 21.2639 11.6016C22.3313 10.5339 23.6205 9.99981 25.1307 9.99981C26.7283 9.99981 28.0567 10.5729 29.1156 11.7188C30.3136 11.4931 31.4773 11.0502 32.6054 10.3907C32.1715 11.7272 31.3638 12.7429 30.1837 13.4374C31.3119 13.2809 32.3619 12.9859 33.3339 12.5519C32.6049 13.663 31.6931 14.6091 30.5994 15.3907Z" fill="white"/>
</g>
<defs>
<clipPath id="clip0">
<rect width="40" height="40" fill="white"/>
</clipPath>
</defs>
</svg>
