<svg width="29" height="29" viewBox="0 0 29 29" fill="none" xmlns="http://www.w3.org/2000/svg">
<circle cx="14.5" cy="14.5" r="14" fill="#26437D" stroke="#3276EB"/>
<g clip-path="url(#clip0)">
<path d="M19.4469 15.6855C19.2044 15.3588 19.2738 15.2135 19.4469 14.9215C19.45 14.9182 21.4519 11.9675 21.6581 10.9668L21.6594 10.9662C21.7619 10.6015 21.6594 10.3335 21.1638 10.3335H19.5238C19.1063 10.3335 18.9137 10.5635 18.8106 10.8208C18.8106 10.8208 17.9756 12.9528 16.7944 14.3348C16.4131 14.7342 16.2369 14.8622 16.0288 14.8622C15.9263 14.8622 15.7669 14.7342 15.7669 14.3695V10.9662C15.7669 10.5288 15.65 10.3335 15.3044 10.3335H12.7256C12.4638 10.3335 12.3081 10.5375 12.3081 10.7275C12.3081 11.1422 12.8988 11.2375 12.96 12.4042V14.9355C12.96 15.4902 12.8656 15.5922 12.6563 15.5922C12.0988 15.5922 10.7456 13.4515 9.94375 11.0015C9.78188 10.5262 9.62375 10.3342 9.20313 10.3342H7.5625C7.09437 10.3342 7 10.5642 7 10.8215C7 11.2762 7.5575 13.5368 9.5925 16.5235C10.9487 18.5622 12.8588 19.6668 14.5963 19.6668C15.6406 19.6668 15.7681 19.4215 15.7681 18.9995C15.7681 17.0515 15.6738 16.8675 16.1969 16.8675C16.4394 16.8675 16.8569 16.9955 17.8319 17.9788C18.9462 19.1448 19.1294 19.6668 19.7531 19.6668H21.3931C21.8606 19.6668 22.0975 19.4215 21.9612 18.9375C21.6494 17.9195 19.5419 15.8255 19.4469 15.6855V15.6855Z" fill="white"/>
</g>
<defs>
<clipPath id="clip0">
<rect width="15" height="16" fill="white" transform="translate(7 7)"/>
</clipPath>
</defs>
</svg>
