<svg width="40" height="40" viewBox="0 0 40 40" fill="none" xmlns="http://www.w3.org/2000/svg">
<path d="M37.8723 0H2.12766C0.95234 0 0 0.952766 0 2.12766V37.8723C0 39.0472 0.95234 40 2.12766 40H37.8723C39.0477 40 40 39.0472 40 37.8723V2.12766C40 0.952766 39.0477 0 37.8723 0ZM31.8592 22.5289C32.9494 23.5928 34.1021 24.5945 35.0813 25.7702C35.5145 26.2894 35.923 26.8255 36.234 27.4294C36.677 28.2906 36.277 29.2366 35.5051 29.2872L30.7153 29.286C29.4787 29.3877 28.494 28.8898 27.6634 28.0443C27.0017 27.3698 26.3864 26.6498 25.7485 25.9532C25.4885 25.6668 25.2128 25.3974 24.8868 25.1847C24.234 24.7609 23.6668 24.8902 23.2919 25.5715C22.9106 26.2651 22.8226 27.0345 22.7877 27.8077C22.7345 28.9374 22.394 29.2323 21.2609 29.2847C18.8396 29.3987 16.5413 29.0311 14.4064 27.8111C12.5217 26.7345 11.0643 25.2136 9.79447 23.4936C7.31957 20.1391 5.42426 16.457 3.72213 12.6694C3.33872 11.8162 3.61915 11.3596 4.55915 11.3421C6.1234 11.3111 7.68723 11.3153 9.24936 11.3404C9.88596 11.3502 10.3068 11.7145 10.5506 12.3145C11.3953 14.3932 12.4319 16.3711 13.7298 18.2051C14.0757 18.6932 14.4289 19.1804 14.9311 19.5255C15.486 19.9068 15.9089 19.7813 16.1706 19.1621C16.3379 18.7672 16.4102 18.3477 16.446 17.9255C16.5702 16.4804 16.5851 15.0353 16.3706 13.5957C16.2366 12.6953 15.7294 12.1136 14.8315 11.9434C14.3745 11.8566 14.4413 11.6872 14.6634 11.4264C15.0489 10.9745 15.4123 10.6953 16.134 10.6953L21.5472 10.6945C22.4009 10.8613 22.5906 11.2443 22.7068 12.1034L22.7119 18.1174C22.703 18.4502 22.8783 19.4357 23.4757 19.6536C23.9536 19.8115 24.2706 19.4281 24.5566 19.1243C25.8536 17.7477 26.7779 16.1217 27.6064 14.4396C27.9711 13.6979 28.2872 12.9294 28.5936 12.1604C28.8204 11.5915 29.1753 11.3115 29.817 11.3217L35.0281 11.3272C35.1813 11.3272 35.3383 11.3289 35.4902 11.354C36.3677 11.5051 36.6081 11.883 36.337 12.74C35.9098 14.086 35.0779 15.2077 34.2643 16.3319C33.3949 17.534 32.4668 18.6966 31.6038 19.9047C30.8132 21.0128 30.877 21.5694 31.8592 22.5289Z" fill="white"/>
</svg>
