<?xml version="1.0" encoding="UTF-8"?>
<svg width="194px" height="36px" viewBox="0 0 194 36" version="1.1" xmlns="http://www.w3.org/2000/svg" xmlns:xlink="http://www.w3.org/1999/xlink">
    <!-- Generator: Sketch 49 (51002) - http://www.bohemiancoding.com/sketch -->
    <title>WETER</title>
    <desc>Created with Sketch.</desc>
    <defs></defs>
    <g id="Page-1" stroke="none" stroke-width="1" fill="none" fill-rule="evenodd">
        <path d="M0.75,0.95 L13.15,0.95 L18.45,23.95 L23.65,0.95 L34.95,0.95 L40.25,23.95 L45.45,0.95 L57.3,0.95 L45.85,36 L33.9,36 L29.05,15.05 L24.05,36 L12.1,36 L0.75,0.95 Z M59.55,0.95 L89.2,0.95 L89.2,9.75 L71.15,9.75 L71.15,14.05 L87.55,14.05 L87.55,22.85 L71.15,22.85 L71.15,27.2 L89.65,27.2 L89.65,36 L59.55,36 L59.55,0.95 Z M91.8,0.95 L123.35,0.95 L123.35,10.1 L113.35,10.1 L113.35,36 L101.75,36 L101.75,10.1 L91.8,10.1 L91.8,0.95 Z M126.1,0.95 L155.75,0.95 L155.75,9.75 L137.7,9.75 L137.7,14.05 L154.1,14.05 L154.1,22.85 L137.7,22.85 L137.7,27.2 L156.2,27.2 L156.2,36 L126.1,36 L126.1,0.95 Z M193.85,36 L180.75,36 L176.55,26.9 L172.2,26.9 L172.2,36 L160.6,36 L160.6,0.95 L177.55,0.95 C187.05,0.95 192.5,5.5 192.5,13.5 C192.5,18.6 190.55,22.4 186.95,24.6 L193.85,36 Z M172.2,9.75 L172.2,18.1 L177.55,18.1 C180.05,18.1 181.5,16.55 181.5,13.85 C181.5,11.25 180.05,9.75 177.55,9.75 L172.2,9.75 Z" id="WETER" fill="#3F7BE5"></path>
    </g>
</svg>