<svg width="35" height="35" viewBox="0 0 35 35" fill="none" xmlns="http://www.w3.org/2000/svg">
<path d="M29.8421 5.08656C26.866 2.11613 22.9124 0.327709 18.7165 0.053924C14.5206 -0.219861 10.368 1.03963 7.03116 3.59814C3.6943 6.15665 1.40027 9.84002 0.575706 13.9632C-0.248854 18.0864 0.45219 22.3687 2.54846 26.0138L0.0878906 35.0021L9.28296 32.5911C11.8263 33.9765 14.6762 34.7023 17.5724 34.7023C21.0026 34.7006 24.3554 33.6823 27.2071 31.776C30.0588 29.8697 32.2816 27.161 33.5946 23.992C34.9076 20.8231 35.2519 17.336 34.584 13.9715C33.9161 10.6069 32.266 7.5158 29.8421 5.08863V5.08656ZM27.5677 24.616C27.1917 25.2365 26.6914 25.7726 26.0982 26.1903C25.505 26.6081 24.8317 26.8986 24.1208 27.0435C23.0475 27.2256 21.9466 27.1548 20.9055 26.8367C19.9168 26.53 18.945 26.1711 17.9942 25.7615C14.468 23.9914 11.4626 21.3351 9.27263 18.0531C8.07849 16.5333 7.3541 14.6979 7.18838 12.7722C7.17402 11.9771 7.32545 11.1877 7.63304 10.4543C7.94062 9.72097 8.39761 9.05973 8.97488 8.51274C9.14533 8.31817 9.3542 8.16097 9.58834 8.05102C9.82248 7.94106 10.0768 7.88073 10.3354 7.87382C10.6766 7.87382 11.0157 7.87382 11.3134 7.89243C11.6112 7.91104 12.0475 7.77251 12.4631 8.76914C12.8787 9.76577 13.9105 12.3049 14.0366 12.5592C14.1179 12.693 14.1645 12.845 14.1721 13.0014C14.1797 13.1577 14.148 13.3135 14.08 13.4546C13.9515 13.7615 13.7795 14.0484 13.5693 14.3064C13.3129 14.6042 13.0338 14.9722 12.8043 15.2018C12.5747 15.4313 12.2832 15.7332 12.5809 16.2356C13.3481 17.5481 14.3055 18.7396 15.422 19.7714C16.6331 20.8485 18.0227 21.7064 19.5284 22.3064C20.0392 22.5628 20.3369 22.5132 20.6347 22.1782C20.9324 21.8432 21.9104 20.6874 22.2516 20.1767C22.5928 19.6659 22.9319 19.7507 23.3992 19.9203C23.8665 20.0898 26.3767 21.3263 26.8874 21.5744C27.3981 21.8225 27.7393 21.9569 27.8654 22.1699C28.008 22.9931 27.906 23.84 27.5718 24.6057L27.5677 24.616Z" fill="white"/>
</svg>
