  <svg xmlns="http://www.w3.org/2000/svg" width="35" height="35" viewBox="0 0 16.846 16.927">
    <path d="M14.392 2.46a8.39 8.39 0 0 0-13.2 10.121l-1.19 4.347 4.447-1.166a8.381 8.381 0 0 0 4.009 1.021 8.392 8.392 0 0 0 5.934-14.322zm-1.1 9.445a2.543 2.543 0 0 1-1.667 1.174 3.384 3.384 0 0 1-1.555-.1 14.18 14.18 0 0 1-1.408-.52 11.008 11.008 0 0 1-4.218-3.728 4.8 4.8 0 0 1-1.008-2.554 2.769 2.769 0 0 1 .864-2.06.907.907 0 0 1 .658-.309c.165 0 .329 0 .473.009s.355-.058.556.424.7 1.71.761 1.833a.454.454 0 0 1 .021.433 1.681 1.681 0 0 1-.247.412c-.124.144-.259.322-.37.433s-.252.257-.108.5a7.44 7.44 0 0 0 1.374 1.71 6.747 6.747 0 0 0 1.986 1.226c.247.124.391.1.535-.062s.617-.721.782-.968.329-.206.555-.124 1.44.68 1.687.8.412.185.473.288a2.064 2.064 0 0 1-.142 1.178z" fill="currentColor"></path>
  </svg>